<!--create it in public folder-->
<svg viewBox="0 0 675 74" fill="none" xmlns="http://www.w3.org/2000/svg">
    <mask id="path-1-outside-1_3_2" maskUnits="userSpaceOnUse" x="0.503906" y="0.296875" width="674" height="74" fill="black">
        <rect fill="white" x="0.503906" y="0.296875" width="674" height="74"/>
        <path d="M1.50391 49.9531H6.56641V8.78516H1.50391V2.63281L25.4805 2.70312C27.6367 2.70312 29.6641 3.11328 31.5625 3.93359C33.4609 4.73047 35.1133 5.83203 36.5195 7.23828C37.9258 8.62109 39.0273 10.2617 39.8242 12.1602C40.6445 14.0586 41.0547 16.0977 41.0547 18.2773C41.0547 20.5508 40.4219 22.625 39.1562 24.5C37.8906 26.375 36.0859 27.875 33.7422 29C34.8906 29.6094 35.9336 30.3242 36.8711 31.1445C37.8086 31.9414 38.6055 32.8203 39.2617 33.7812C39.918 34.7422 40.4219 35.7617 40.7734 36.8398C41.1484 37.918 41.3359 39.0195 41.3359 40.1445C41.3359 42.3711 40.9258 44.4453 40.1055 46.3672C39.3086 48.2891 38.207 49.9648 36.8008 51.3945C35.3945 52.8242 33.7422 53.9492 31.8438 54.7695C29.9688 55.5898 27.9531 56 25.7969 56H1.50391V49.9531ZM13.457 32.3047V49.9531H25.8672C26.9922 49.9531 28.0352 49.6719 28.9961 49.1094C29.957 48.5469 30.8008 47.8203 31.5273 46.9297C32.2539 46.0156 32.8164 44.9844 33.2148 43.8359C33.6367 42.6875 33.8477 41.5156 33.8477 40.3203C33.8477 39.2891 33.6367 38.293 33.2148 37.332C32.793 36.3711 32.2188 35.5156 31.4922 34.7656C30.7891 34.0156 29.9453 33.418 28.9609 32.9727C28 32.5273 26.9688 32.3047 25.8672 32.3047H13.457ZM13.457 8.78516V26.1875H25.5508C26.6758 26.1875 27.7188 25.9648 28.6797 25.5195C29.6641 25.0742 30.5078 24.4766 31.2109 23.7266C31.9375 22.9766 32.5117 22.1094 32.9336 21.125C33.3555 20.1406 33.5664 19.1211 33.5664 18.0664C33.5664 16.918 33.3555 15.793 32.9336 14.6914C32.5117 13.5664 31.9375 12.5703 31.2109 11.7031C30.4844 10.8359 29.6289 10.1328 28.6445 9.59375C27.6836 9.05469 26.6523 8.78516 25.5508 8.78516H13.457Z"/>
        <path d="M68.9336 52.625C67.5508 53.9141 66.0156 54.9688 64.3281 55.7891C62.6641 56.6094 60.7656 57.0195 58.6328 57.0195C56.8516 57.0195 55.2109 56.7383 53.7109 56.1758C52.2344 55.6133 50.957 54.8516 49.8789 53.8906C48.8008 52.9062 47.957 51.7695 47.3477 50.4805C46.7617 49.1914 46.4688 47.8203 46.4688 46.3672C46.4688 44.8203 46.6914 43.4492 47.1367 42.2539C47.6055 41.0586 48.2148 40.0273 48.9648 39.1602C49.7383 38.2695 50.6289 37.5312 51.6367 36.9453C52.668 36.3359 53.7344 35.8555 54.8359 35.5039C55.9609 35.1289 57.0977 34.8711 58.2461 34.7305C59.418 34.5664 60.5312 34.4844 61.5859 34.4844C63.2734 34.4844 64.6914 34.543 65.8398 34.6602C66.9883 34.7539 68.0312 34.8945 68.9688 35.082L69.0039 32.0938C69.0039 30.8047 68.8164 29.6914 68.4414 28.7539C68.0664 27.793 67.5391 27.0078 66.8594 26.3984C66.1797 25.7656 65.3594 25.2969 64.3984 24.9922C63.4609 24.6875 62.4062 24.5352 61.2344 24.5352C60.1328 24.5352 59.0781 24.6172 58.0703 24.7812C57.0625 24.9219 56.1133 25.1211 55.2227 25.3789C54.3555 25.6133 53.5469 25.8945 52.7969 26.2227C52.0703 26.5273 51.4492 26.8555 50.9336 27.207L48.7891 22.6719C49.6562 22.1094 50.6055 21.5938 51.6367 21.125C52.668 20.6328 53.7461 20.2227 54.8711 19.8945C56.0195 19.543 57.1797 19.2734 58.3516 19.0859C59.5469 18.875 60.7188 18.7695 61.8672 18.7695C63.9766 18.7695 65.875 19.0273 67.5625 19.543C69.25 20.0352 70.6797 20.8086 71.8516 21.8633C73.0234 22.918 73.9258 24.2656 74.5586 25.9062C75.1914 27.5234 75.5078 29.4688 75.5078 31.7422L75.4727 49.9531H79.5156V56H68.9336V52.625ZM60.0742 51.5352C60.9414 51.5352 61.8086 51.4297 62.6758 51.2188C63.543 51.0078 64.3633 50.7266 65.1367 50.375C65.9102 50 66.625 49.5781 67.2812 49.1094C67.9375 48.6172 68.4883 48.1133 68.9336 47.5977L68.9688 39.3711H61.375C60.1094 39.3711 58.9492 39.5117 57.8945 39.793C56.8633 40.0742 55.9609 40.4844 55.1875 41.0234C54.4375 41.5625 53.8516 42.2305 53.4297 43.0273C53.0078 43.8242 52.7969 44.7383 52.7969 45.7695C52.7969 46.7305 52.9727 47.5742 53.3242 48.3008C53.6758 49.0039 54.168 49.6016 54.8008 50.0938C55.457 50.5625 56.2305 50.9258 57.1211 51.1836C58.0117 51.418 58.9961 51.5352 60.0742 51.5352Z"/>
        <path d="M113.195 29.2812C112.211 27.5234 110.957 26.2344 109.434 25.4141C107.934 24.5938 106.188 24.1836 104.195 24.1836C102.672 24.1836 101.242 24.5 99.9062 25.1328C98.5703 25.7656 97.3984 26.668 96.3906 27.8398C95.4062 29.0117 94.6211 30.4414 94.0352 32.1289C93.4727 33.793 93.1914 35.6562 93.1914 37.7188C93.1914 39.7578 93.4727 41.5977 94.0352 43.2383C94.6211 44.8789 95.418 46.2852 96.4258 47.457C97.4336 48.6055 98.5938 49.4961 99.9062 50.1289C101.242 50.7383 102.672 51.043 104.195 51.043C106.445 51.043 108.402 50.5039 110.066 49.4258C111.73 48.3242 113.055 46.7188 114.039 44.6094L119.453 47.2812C118.75 48.7812 117.883 50.1289 116.852 51.3242C115.82 52.5195 114.648 53.5391 113.336 54.3828C112.047 55.2266 110.617 55.8711 109.047 56.3164C107.5 56.7852 105.859 57.0195 104.125 57.0195C101.594 57.0195 99.25 56.5508 97.0938 55.6133C94.9609 54.6523 93.1094 53.3164 91.5391 51.6055C89.9922 49.8945 88.7852 47.8555 87.918 45.4883C87.0508 43.1211 86.6172 40.5312 86.6172 37.7188C86.6172 34.9062 87.0742 32.3164 87.9883 29.9492C88.9023 27.582 90.1562 25.5547 91.75 23.8672C93.3438 22.1562 95.207 20.8203 97.3398 19.8594C99.4727 18.8984 101.758 18.418 104.195 18.418C106.492 18.418 108.66 18.8164 110.699 19.6133C112.762 20.4102 114.566 21.6172 116.113 23.2344H119.805V29.2812H113.195Z"/>
        <path d="M125.922 1.29688H138.754V7.34375H138.684V34.5547H145.012L153.66 25.625H151.48V19.5781H165.297V25.625H160.691L149.617 37.0508L161.711 49.9531H166.105V56H158.406L143.5 39.7227H138.684V49.9531H141.707V56H126.133V49.9531H132.109V7.34375H125.922V1.29688Z"/>
        <path d="M177.602 38.6328C177.602 39.6641 177.672 40.6133 177.812 41.4805C177.977 42.3242 178.199 43.1328 178.48 43.9062C179.348 46.25 180.73 48.0195 182.629 49.2148C184.551 50.3867 186.719 50.9727 189.133 50.9727C191.031 50.9727 192.871 50.7148 194.652 50.1992C196.457 49.6602 198.344 48.8281 200.312 47.7031L202.949 52.168C200.559 53.8086 198.156 55.0273 195.742 55.8242C193.328 56.6211 190.82 57.0195 188.219 57.0195C185.758 57.0195 183.473 56.6094 181.363 55.7891C179.277 54.9688 177.473 53.75 175.949 52.1328C174.449 50.5156 173.266 48.5 172.398 46.0859C171.555 43.6719 171.133 40.8594 171.133 37.6484C171.133 35.0469 171.496 32.5977 172.223 30.3008C172.949 27.9805 174.027 25.9648 175.457 24.2539C176.91 22.5195 178.703 21.1484 180.836 20.1406C182.969 19.1328 185.453 18.6289 188.289 18.6289C191.031 18.6289 193.316 19.0508 195.145 19.8945C196.996 20.7148 198.496 21.8164 199.645 23.1992C200.816 24.5586 201.695 26.1172 202.281 27.875C202.891 29.6328 203.312 31.4258 203.547 33.2539C203.664 34.1445 203.734 35.0469 203.758 35.9609C203.805 36.875 203.828 37.7656 203.828 38.6328H177.602ZM187.832 24.1133C186.309 24.1133 184.973 24.3359 183.824 24.7812C182.699 25.2031 181.738 25.8242 180.941 26.6445C180.145 27.4414 179.5 28.4258 179.008 29.5977C178.539 30.7695 178.188 32.082 177.953 33.5352H196.832C196.738 32.1758 196.516 30.9219 196.164 29.7734C195.836 28.625 195.32 27.6289 194.617 26.7852C193.914 25.9414 193.012 25.2852 191.91 24.8164C190.809 24.3477 189.449 24.1133 187.832 24.1133Z"/>
        <path d="M236.734 49.9531H241.867V33.3242C241.867 30.5352 241.152 28.4258 239.723 26.9961C238.316 25.543 236.289 24.8164 233.641 24.8164C232.117 24.8164 230.582 25.1797 229.035 25.9062C227.488 26.6328 226.023 27.5352 224.641 28.6133V49.9531H229.773V56H212.758V49.9531H217.82V25.625H212.758V19.5781H224.359V23.8672H224.43C225.203 23.1875 226.023 22.543 226.891 21.9336C227.781 21.3242 228.707 20.7969 229.668 20.3516C230.629 19.9062 231.625 19.5547 232.656 19.2969C233.711 19.0391 234.812 18.9102 235.961 18.9102C237.906 18.9102 239.664 19.1797 241.234 19.7188C242.805 20.2578 244.141 21.0781 245.242 22.1797C246.344 23.2812 247.188 24.6992 247.773 26.4336C248.383 28.1445 248.688 30.1719 248.688 32.5156V49.9531H253.75V56H236.734V49.9531Z"/>
        <path d="M282.262 1.29688H293.758V49.9531H299.102V56H287.219V53.0117C286.047 54.207 284.688 55.1445 283.141 55.8242C281.594 56.4805 279.836 56.8086 277.867 56.8086C275.406 56.8086 273.109 56.3867 270.977 55.543C268.867 54.6758 267.027 53.4219 265.457 51.7812C263.91 50.1172 262.691 48.0898 261.801 45.6992C260.934 43.2852 260.5 40.5312 260.5 37.4375C260.5 34.625 260.922 32.0703 261.766 29.7734C262.609 27.4531 263.805 25.4844 265.352 23.8672C266.898 22.2266 268.762 20.9609 270.941 20.0703C273.121 19.1562 275.547 18.6992 278.219 18.6992C279.977 18.6992 281.582 18.8984 283.035 19.2969C284.488 19.6719 285.883 20.3398 287.219 21.3008V7.34375H282.262V1.29688ZM278.711 51.1133C280.656 51.1133 282.285 50.832 283.598 50.2695C284.91 49.6836 286.117 48.8164 287.219 47.668V27.2773C286.047 26.293 284.699 25.5781 283.176 25.1328C281.652 24.6875 280.094 24.4648 278.5 24.4648C276.953 24.4648 275.5 24.7578 274.141 25.3438C272.781 25.9062 271.586 26.7383 270.555 27.8398C269.547 28.9414 268.75 30.2891 268.164 31.8828C267.578 33.4766 267.285 35.3047 267.285 37.3672C267.285 39.6172 267.566 41.5977 268.129 43.3086C268.691 45.0195 269.477 46.4609 270.484 47.6328C271.492 48.7812 272.699 49.6484 274.105 50.2344C275.512 50.8203 277.047 51.1133 278.711 51.1133Z"/>
        <path d="M322.621 2.70312H342.449C344.887 2.70312 347.207 3.01953 349.41 3.65234C351.613 4.28516 353.664 5.17578 355.562 6.32422C357.461 7.47266 359.184 8.85547 360.73 10.4727C362.277 12.0664 363.59 13.8477 364.668 15.8164C365.77 17.7852 366.613 19.9062 367.199 22.1797C367.785 24.4297 368.078 26.7734 368.078 29.2109C368.078 31.6953 367.785 34.0742 367.199 36.3477C366.613 38.6211 365.77 40.7539 364.668 42.7461C363.59 44.7383 362.277 46.5547 360.73 48.1953C359.184 49.8125 357.461 51.207 355.562 52.3789C353.664 53.5273 351.613 54.418 349.41 55.0508C347.207 55.6836 344.887 56 342.449 56H322.621V49.9531H327.684V8.78516H322.621V2.70312ZM334.574 8.78516V49.9531H342.871C345.332 49.9531 347.641 49.4141 349.797 48.3359C351.977 47.2578 353.875 45.793 355.492 43.9414C357.109 42.0664 358.387 39.875 359.324 37.3672C360.262 34.8359 360.73 32.1172 360.73 29.2109C360.73 26.3516 360.262 23.6797 359.324 21.1953C358.387 18.7109 357.109 16.5547 355.492 14.7266C353.875 12.875 351.977 11.4219 349.797 10.3672C347.641 9.3125 345.332 8.78516 342.871 8.78516H334.574Z"/>
        <path d="M380.312 38.6328C380.312 39.6641 380.383 40.6133 380.523 41.4805C380.688 42.3242 380.91 43.1328 381.191 43.9062C382.059 46.25 383.441 48.0195 385.34 49.2148C387.262 50.3867 389.43 50.9727 391.844 50.9727C393.742 50.9727 395.582 50.7148 397.363 50.1992C399.168 49.6602 401.055 48.8281 403.023 47.7031L405.66 52.168C403.27 53.8086 400.867 55.0273 398.453 55.8242C396.039 56.6211 393.531 57.0195 390.93 57.0195C388.469 57.0195 386.184 56.6094 384.074 55.7891C381.988 54.9688 380.184 53.75 378.66 52.1328C377.16 50.5156 375.977 48.5 375.109 46.0859C374.266 43.6719 373.844 40.8594 373.844 37.6484C373.844 35.0469 374.207 32.5977 374.934 30.3008C375.66 27.9805 376.738 25.9648 378.168 24.2539C379.621 22.5195 381.414 21.1484 383.547 20.1406C385.68 19.1328 388.164 18.6289 391 18.6289C393.742 18.6289 396.027 19.0508 397.855 19.8945C399.707 20.7148 401.207 21.8164 402.355 23.1992C403.527 24.5586 404.406 26.1172 404.992 27.875C405.602 29.6328 406.023 31.4258 406.258 33.2539C406.375 34.1445 406.445 35.0469 406.469 35.9609C406.516 36.875 406.539 37.7656 406.539 38.6328H380.312ZM390.543 24.1133C389.02 24.1133 387.684 24.3359 386.535 24.7812C385.41 25.2031 384.449 25.8242 383.652 26.6445C382.855 27.4414 382.211 28.4258 381.719 29.5977C381.25 30.7695 380.898 32.082 380.664 33.5352H399.543C399.449 32.1758 399.227 30.9219 398.875 29.7734C398.547 28.625 398.031 27.6289 397.328 26.7852C396.625 25.9414 395.723 25.2852 394.621 24.8164C393.52 24.3477 392.16 24.1133 390.543 24.1133Z"/>
        <path d="M412.656 19.5781H425.242V25.625H421.832L430.832 50.7266L439.621 25.625H437.406V19.5781H448.938V25.625H445.809L433.891 56.5625H427.422L415.539 25.625H412.656V19.5781Z"/>
        <path d="M460.328 38.6328C460.328 39.6641 460.398 40.6133 460.539 41.4805C460.703 42.3242 460.926 43.1328 461.207 43.9062C462.074 46.25 463.457 48.0195 465.355 49.2148C467.277 50.3867 469.445 50.9727 471.859 50.9727C473.758 50.9727 475.598 50.7148 477.379 50.1992C479.184 49.6602 481.07 48.8281 483.039 47.7031L485.676 52.168C483.285 53.8086 480.883 55.0273 478.469 55.8242C476.055 56.6211 473.547 57.0195 470.945 57.0195C468.484 57.0195 466.199 56.6094 464.09 55.7891C462.004 54.9688 460.199 53.75 458.676 52.1328C457.176 50.5156 455.992 48.5 455.125 46.0859C454.281 43.6719 453.859 40.8594 453.859 37.6484C453.859 35.0469 454.223 32.5977 454.949 30.3008C455.676 27.9805 456.754 25.9648 458.184 24.2539C459.637 22.5195 461.43 21.1484 463.562 20.1406C465.695 19.1328 468.18 18.6289 471.016 18.6289C473.758 18.6289 476.043 19.0508 477.871 19.8945C479.723 20.7148 481.223 21.8164 482.371 23.1992C483.543 24.5586 484.422 26.1172 485.008 27.875C485.617 29.6328 486.039 31.4258 486.273 33.2539C486.391 34.1445 486.461 35.0469 486.484 35.9609C486.531 36.875 486.555 37.7656 486.555 38.6328H460.328ZM470.559 24.1133C469.035 24.1133 467.699 24.3359 466.551 24.7812C465.426 25.2031 464.465 25.8242 463.668 26.6445C462.871 27.4414 462.227 28.4258 461.734 29.5977C461.266 30.7695 460.914 32.082 460.68 33.5352H479.559C479.465 32.1758 479.242 30.9219 478.891 29.7734C478.562 28.625 478.047 27.6289 477.344 26.7852C476.641 25.9414 475.738 25.2852 474.637 24.8164C473.535 24.3477 472.176 24.1133 470.559 24.1133Z"/>
        <path d="M495.203 1.29688H507.016V49.9531H512.5V56H495.203V49.9531H500.477V7.34375H495.203V1.29688Z"/>
        <path d="M518.406 37.7891C518.43 34.9062 518.887 32.2812 519.777 29.9141C520.691 27.5469 521.957 25.5195 523.574 23.832C525.191 22.1211 527.113 20.8086 529.34 19.8945C531.566 18.9805 534.016 18.5234 536.688 18.5234C539.383 18.5234 541.844 18.9805 544.07 19.8945C546.32 20.8086 548.242 22.1094 549.836 23.7969C551.43 25.4609 552.672 27.4766 553.562 29.8438C554.453 32.2109 554.898 34.8359 554.898 37.7188C554.898 40.5547 554.453 43.168 553.562 45.5586C552.672 47.9258 551.43 49.9648 549.836 51.6758C548.242 53.3867 546.32 54.7227 544.07 55.6836C541.844 56.6211 539.383 57.0898 536.688 57.0898C533.945 57.0898 531.461 56.6211 529.234 55.6836C527.008 54.7461 525.098 53.4336 523.504 51.7461C521.91 50.0352 520.668 47.9961 519.777 45.6289C518.887 43.2617 518.43 40.6484 518.406 37.7891ZM525.332 37.7891C525.332 39.875 525.625 41.7617 526.211 43.4492C526.82 45.1367 527.641 46.5781 528.672 47.7734C529.727 48.9453 530.934 49.8594 532.293 50.5156C533.676 51.1484 535.141 51.4648 536.688 51.4648C538.305 51.4648 539.805 51.1484 541.188 50.5156C542.594 49.8828 543.812 48.9805 544.844 47.8086C545.875 46.6133 546.684 45.1719 547.27 43.4844C547.855 41.7969 548.148 39.8984 548.148 37.7891C548.148 35.5859 547.855 33.6289 547.27 31.918C546.684 30.207 545.875 28.7773 544.844 27.6289C543.836 26.4805 542.629 25.6133 541.223 25.0273C539.816 24.4414 538.305 24.1484 536.688 24.1484C535.141 24.1484 533.676 24.4414 532.293 25.0273C530.934 25.6133 529.727 26.4805 528.672 27.6289C527.641 28.7773 526.82 30.207 526.211 31.918C525.625 33.6289 525.332 35.5859 525.332 37.7891Z"/>
        <path d="M560.559 19.5781H572.16V22.6016C573.707 21.4062 575.395 20.457 577.223 19.7539C579.051 19.0508 580.938 18.6992 582.883 18.6992C585.273 18.6992 587.465 19.1445 589.457 20.0352C591.449 20.9258 593.16 22.1797 594.59 23.7969C596.043 25.4141 597.168 27.3594 597.965 29.6328C598.762 31.8828 599.16 34.3789 599.16 37.1211C599.16 40.0508 598.715 42.7227 597.824 45.1367C596.934 47.5508 595.691 49.625 594.098 51.3594C592.527 53.0703 590.652 54.4062 588.473 55.3672C586.293 56.3281 583.902 56.8086 581.301 56.8086C579.449 56.8086 577.797 56.6094 576.344 56.2109C574.914 55.8359 573.543 55.3438 572.23 54.7344V66.5117H577.926V72.5586H560.629V66.5117H565.621V25.625H560.559V19.5781ZM581.16 24.4648C579.473 24.4648 577.844 24.8047 576.273 25.4844C574.727 26.1641 573.379 27.1016 572.23 28.2969V48.0195C573.004 48.8164 574.105 49.5312 575.535 50.1641C576.988 50.7969 578.793 51.1133 580.949 51.1133C582.449 51.1133 583.891 50.8203 585.273 50.2344C586.656 49.6484 587.875 48.7812 588.93 47.6328C589.984 46.4609 590.828 45.0195 591.461 43.3086C592.094 41.5977 592.41 39.6172 592.41 37.3672C592.41 35.3047 592.105 33.4766 591.496 31.8828C590.91 30.2891 590.102 28.9414 589.07 27.8398C588.062 26.7383 586.879 25.9062 585.52 25.3438C584.16 24.7578 582.707 24.4648 581.16 24.4648Z"/>
        <path d="M612.133 38.6328C612.133 39.6641 612.203 40.6133 612.344 41.4805C612.508 42.3242 612.73 43.1328 613.012 43.9062C613.879 46.25 615.262 48.0195 617.16 49.2148C619.082 50.3867 621.25 50.9727 623.664 50.9727C625.562 50.9727 627.402 50.7148 629.184 50.1992C630.988 49.6602 632.875 48.8281 634.844 47.7031L637.48 52.168C635.09 53.8086 632.688 55.0273 630.273 55.8242C627.859 56.6211 625.352 57.0195 622.75 57.0195C620.289 57.0195 618.004 56.6094 615.895 55.7891C613.809 54.9688 612.004 53.75 610.48 52.1328C608.98 50.5156 607.797 48.5 606.93 46.0859C606.086 43.6719 605.664 40.8594 605.664 37.6484C605.664 35.0469 606.027 32.5977 606.754 30.3008C607.48 27.9805 608.559 25.9648 609.988 24.2539C611.441 22.5195 613.234 21.1484 615.367 20.1406C617.5 19.1328 619.984 18.6289 622.82 18.6289C625.562 18.6289 627.848 19.0508 629.676 19.8945C631.527 20.7148 633.027 21.8164 634.176 23.1992C635.348 24.5586 636.227 26.1172 636.812 27.875C637.422 29.6328 637.844 31.4258 638.078 33.2539C638.195 34.1445 638.266 35.0469 638.289 35.9609C638.336 36.875 638.359 37.7656 638.359 38.6328H612.133ZM622.363 24.1133C620.84 24.1133 619.504 24.3359 618.355 24.7812C617.23 25.2031 616.27 25.8242 615.473 26.6445C614.676 27.4414 614.031 28.4258 613.539 29.5977C613.07 30.7695 612.719 32.082 612.484 33.5352H631.363C631.27 32.1758 631.047 30.9219 630.695 29.7734C630.367 28.625 629.852 27.6289 629.148 26.7852C628.445 25.9414 627.543 25.2852 626.441 24.8164C625.34 24.3477 623.98 24.1133 622.363 24.1133Z"/>
        <path d="M673.48 27.2773H666.801V25.0273C666.027 25.0273 665.23 25.1797 664.41 25.4844C663.613 25.7656 662.863 26.2109 662.16 26.8203C661.457 27.4062 660.836 28.168 660.297 29.1055C659.781 30.0195 659.406 31.1094 659.172 32.375V49.9531H665.359V56H647.289V49.9531H652.316L652.352 25.625H647.289V19.5781H658.926V24.6055C659.348 23.8555 659.816 23.1641 660.332 22.5312C660.871 21.875 661.457 21.3125 662.09 20.8438C662.746 20.3516 663.461 19.9766 664.234 19.7188C665.031 19.4375 665.887 19.2969 666.801 19.2969C668.02 19.2969 669.168 19.2969 670.246 19.2969C671.324 19.2969 672.402 19.3203 673.48 19.3672V27.2773Z"/>
    </mask>
    <path d="M1.50391 49.9531H6.56641V8.78516H1.50391V2.63281L25.4805 2.70312C27.6367 2.70312 29.6641 3.11328 31.5625 3.93359C33.4609 4.73047 35.1133 5.83203 36.5195 7.23828C37.9258 8.62109 39.0273 10.2617 39.8242 12.1602C40.6445 14.0586 41.0547 16.0977 41.0547 18.2773C41.0547 20.5508 40.4219 22.625 39.1562 24.5C37.8906 26.375 36.0859 27.875 33.7422 29C34.8906 29.6094 35.9336 30.3242 36.8711 31.1445C37.8086 31.9414 38.6055 32.8203 39.2617 33.7812C39.918 34.7422 40.4219 35.7617 40.7734 36.8398C41.1484 37.918 41.3359 39.0195 41.3359 40.1445C41.3359 42.3711 40.9258 44.4453 40.1055 46.3672C39.3086 48.2891 38.207 49.9648 36.8008 51.3945C35.3945 52.8242 33.7422 53.9492 31.8438 54.7695C29.9688 55.5898 27.9531 56 25.7969 56H1.50391V49.9531ZM13.457 32.3047V49.9531H25.8672C26.9922 49.9531 28.0352 49.6719 28.9961 49.1094C29.957 48.5469 30.8008 47.8203 31.5273 46.9297C32.2539 46.0156 32.8164 44.9844 33.2148 43.8359C33.6367 42.6875 33.8477 41.5156 33.8477 40.3203C33.8477 39.2891 33.6367 38.293 33.2148 37.332C32.793 36.3711 32.2188 35.5156 31.4922 34.7656C30.7891 34.0156 29.9453 33.418 28.9609 32.9727C28 32.5273 26.9688 32.3047 25.8672 32.3047H13.457ZM13.457 8.78516V26.1875H25.5508C26.6758 26.1875 27.7188 25.9648 28.6797 25.5195C29.6641 25.0742 30.5078 24.4766 31.2109 23.7266C31.9375 22.9766 32.5117 22.1094 32.9336 21.125C33.3555 20.1406 33.5664 19.1211 33.5664 18.0664C33.5664 16.918 33.3555 15.793 32.9336 14.6914C32.5117 13.5664 31.9375 12.5703 31.2109 11.7031C30.4844 10.8359 29.6289 10.1328 28.6445 9.59375C27.6836 9.05469 26.6523 8.78516 25.5508 8.78516H13.457Z" stroke="white" stroke-width="2" mask="url(#path-1-outside-1_3_2)"/>
    <path d="M68.9336 52.625C67.5508 53.9141 66.0156 54.9688 64.3281 55.7891C62.6641 56.6094 60.7656 57.0195 58.6328 57.0195C56.8516 57.0195 55.2109 56.7383 53.7109 56.1758C52.2344 55.6133 50.957 54.8516 49.8789 53.8906C48.8008 52.9062 47.957 51.7695 47.3477 50.4805C46.7617 49.1914 46.4688 47.8203 46.4688 46.3672C46.4688 44.8203 46.6914 43.4492 47.1367 42.2539C47.6055 41.0586 48.2148 40.0273 48.9648 39.1602C49.7383 38.2695 50.6289 37.5312 51.6367 36.9453C52.668 36.3359 53.7344 35.8555 54.8359 35.5039C55.9609 35.1289 57.0977 34.8711 58.2461 34.7305C59.418 34.5664 60.5312 34.4844 61.5859 34.4844C63.2734 34.4844 64.6914 34.543 65.8398 34.6602C66.9883 34.7539 68.0312 34.8945 68.9688 35.082L69.0039 32.0938C69.0039 30.8047 68.8164 29.6914 68.4414 28.7539C68.0664 27.793 67.5391 27.0078 66.8594 26.3984C66.1797 25.7656 65.3594 25.2969 64.3984 24.9922C63.4609 24.6875 62.4062 24.5352 61.2344 24.5352C60.1328 24.5352 59.0781 24.6172 58.0703 24.7812C57.0625 24.9219 56.1133 25.1211 55.2227 25.3789C54.3555 25.6133 53.5469 25.8945 52.7969 26.2227C52.0703 26.5273 51.4492 26.8555 50.9336 27.207L48.7891 22.6719C49.6562 22.1094 50.6055 21.5938 51.6367 21.125C52.668 20.6328 53.7461 20.2227 54.8711 19.8945C56.0195 19.543 57.1797 19.2734 58.3516 19.0859C59.5469 18.875 60.7188 18.7695 61.8672 18.7695C63.9766 18.7695 65.875 19.0273 67.5625 19.543C69.25 20.0352 70.6797 20.8086 71.8516 21.8633C73.0234 22.918 73.9258 24.2656 74.5586 25.9062C75.1914 27.5234 75.5078 29.4688 75.5078 31.7422L75.4727 49.9531H79.5156V56H68.9336V52.625ZM60.0742 51.5352C60.9414 51.5352 61.8086 51.4297 62.6758 51.2188C63.543 51.0078 64.3633 50.7266 65.1367 50.375C65.9102 50 66.625 49.5781 67.2812 49.1094C67.9375 48.6172 68.4883 48.1133 68.9336 47.5977L68.9688 39.3711H61.375C60.1094 39.3711 58.9492 39.5117 57.8945 39.793C56.8633 40.0742 55.9609 40.4844 55.1875 41.0234C54.4375 41.5625 53.8516 42.2305 53.4297 43.0273C53.0078 43.8242 52.7969 44.7383 52.7969 45.7695C52.7969 46.7305 52.9727 47.5742 53.3242 48.3008C53.6758 49.0039 54.168 49.6016 54.8008 50.0938C55.457 50.5625 56.2305 50.9258 57.1211 51.1836C58.0117 51.418 58.9961 51.5352 60.0742 51.5352Z" stroke="white" stroke-width="2" mask="url(#path-1-outside-1_3_2)"/>
    <path d="M113.195 29.2812C112.211 27.5234 110.957 26.2344 109.434 25.4141C107.934 24.5938 106.188 24.1836 104.195 24.1836C102.672 24.1836 101.242 24.5 99.9062 25.1328C98.5703 25.7656 97.3984 26.668 96.3906 27.8398C95.4062 29.0117 94.6211 30.4414 94.0352 32.1289C93.4727 33.793 93.1914 35.6562 93.1914 37.7188C93.1914 39.7578 93.4727 41.5977 94.0352 43.2383C94.6211 44.8789 95.418 46.2852 96.4258 47.457C97.4336 48.6055 98.5938 49.4961 99.9062 50.1289C101.242 50.7383 102.672 51.043 104.195 51.043C106.445 51.043 108.402 50.5039 110.066 49.4258C111.73 48.3242 113.055 46.7188 114.039 44.6094L119.453 47.2812C118.75 48.7812 117.883 50.1289 116.852 51.3242C115.82 52.5195 114.648 53.5391 113.336 54.3828C112.047 55.2266 110.617 55.8711 109.047 56.3164C107.5 56.7852 105.859 57.0195 104.125 57.0195C101.594 57.0195 99.25 56.5508 97.0938 55.6133C94.9609 54.6523 93.1094 53.3164 91.5391 51.6055C89.9922 49.8945 88.7852 47.8555 87.918 45.4883C87.0508 43.1211 86.6172 40.5312 86.6172 37.7188C86.6172 34.9062 87.0742 32.3164 87.9883 29.9492C88.9023 27.582 90.1562 25.5547 91.75 23.8672C93.3438 22.1562 95.207 20.8203 97.3398 19.8594C99.4727 18.8984 101.758 18.418 104.195 18.418C106.492 18.418 108.66 18.8164 110.699 19.6133C112.762 20.4102 114.566 21.6172 116.113 23.2344H119.805V29.2812H113.195Z" stroke="white" stroke-width="2" mask="url(#path-1-outside-1_3_2)"/>
    <path d="M125.922 1.29688H138.754V7.34375H138.684V34.5547H145.012L153.66 25.625H151.48V19.5781H165.297V25.625H160.691L149.617 37.0508L161.711 49.9531H166.105V56H158.406L143.5 39.7227H138.684V49.9531H141.707V56H126.133V49.9531H132.109V7.34375H125.922V1.29688Z" stroke="white" stroke-width="2" mask="url(#path-1-outside-1_3_2)"/>
    <path d="M177.602 38.6328C177.602 39.6641 177.672 40.6133 177.812 41.4805C177.977 42.3242 178.199 43.1328 178.48 43.9062C179.348 46.25 180.73 48.0195 182.629 49.2148C184.551 50.3867 186.719 50.9727 189.133 50.9727C191.031 50.9727 192.871 50.7148 194.652 50.1992C196.457 49.6602 198.344 48.8281 200.312 47.7031L202.949 52.168C200.559 53.8086 198.156 55.0273 195.742 55.8242C193.328 56.6211 190.82 57.0195 188.219 57.0195C185.758 57.0195 183.473 56.6094 181.363 55.7891C179.277 54.9688 177.473 53.75 175.949 52.1328C174.449 50.5156 173.266 48.5 172.398 46.0859C171.555 43.6719 171.133 40.8594 171.133 37.6484C171.133 35.0469 171.496 32.5977 172.223 30.3008C172.949 27.9805 174.027 25.9648 175.457 24.2539C176.91 22.5195 178.703 21.1484 180.836 20.1406C182.969 19.1328 185.453 18.6289 188.289 18.6289C191.031 18.6289 193.316 19.0508 195.145 19.8945C196.996 20.7148 198.496 21.8164 199.645 23.1992C200.816 24.5586 201.695 26.1172 202.281 27.875C202.891 29.6328 203.312 31.4258 203.547 33.2539C203.664 34.1445 203.734 35.0469 203.758 35.9609C203.805 36.875 203.828 37.7656 203.828 38.6328H177.602ZM187.832 24.1133C186.309 24.1133 184.973 24.3359 183.824 24.7812C182.699 25.2031 181.738 25.8242 180.941 26.6445C180.145 27.4414 179.5 28.4258 179.008 29.5977C178.539 30.7695 178.188 32.082 177.953 33.5352H196.832C196.738 32.1758 196.516 30.9219 196.164 29.7734C195.836 28.625 195.32 27.6289 194.617 26.7852C193.914 25.9414 193.012 25.2852 191.91 24.8164C190.809 24.3477 189.449 24.1133 187.832 24.1133Z" stroke="white" stroke-width="2" mask="url(#path-1-outside-1_3_2)"/>
    <path d="M236.734 49.9531H241.867V33.3242C241.867 30.5352 241.152 28.4258 239.723 26.9961C238.316 25.543 236.289 24.8164 233.641 24.8164C232.117 24.8164 230.582 25.1797 229.035 25.9062C227.488 26.6328 226.023 27.5352 224.641 28.6133V49.9531H229.773V56H212.758V49.9531H217.82V25.625H212.758V19.5781H224.359V23.8672H224.43C225.203 23.1875 226.023 22.543 226.891 21.9336C227.781 21.3242 228.707 20.7969 229.668 20.3516C230.629 19.9062 231.625 19.5547 232.656 19.2969C233.711 19.0391 234.812 18.9102 235.961 18.9102C237.906 18.9102 239.664 19.1797 241.234 19.7188C242.805 20.2578 244.141 21.0781 245.242 22.1797C246.344 23.2812 247.188 24.6992 247.773 26.4336C248.383 28.1445 248.688 30.1719 248.688 32.5156V49.9531H253.75V56H236.734V49.9531Z" stroke="white" stroke-width="2" mask="url(#path-1-outside-1_3_2)"/>
    <path d="M282.262 1.29688H293.758V49.9531H299.102V56H287.219V53.0117C286.047 54.207 284.688 55.1445 283.141 55.8242C281.594 56.4805 279.836 56.8086 277.867 56.8086C275.406 56.8086 273.109 56.3867 270.977 55.543C268.867 54.6758 267.027 53.4219 265.457 51.7812C263.91 50.1172 262.691 48.0898 261.801 45.6992C260.934 43.2852 260.5 40.5312 260.5 37.4375C260.5 34.625 260.922 32.0703 261.766 29.7734C262.609 27.4531 263.805 25.4844 265.352 23.8672C266.898 22.2266 268.762 20.9609 270.941 20.0703C273.121 19.1562 275.547 18.6992 278.219 18.6992C279.977 18.6992 281.582 18.8984 283.035 19.2969C284.488 19.6719 285.883 20.3398 287.219 21.3008V7.34375H282.262V1.29688ZM278.711 51.1133C280.656 51.1133 282.285 50.832 283.598 50.2695C284.91 49.6836 286.117 48.8164 287.219 47.668V27.2773C286.047 26.293 284.699 25.5781 283.176 25.1328C281.652 24.6875 280.094 24.4648 278.5 24.4648C276.953 24.4648 275.5 24.7578 274.141 25.3438C272.781 25.9062 271.586 26.7383 270.555 27.8398C269.547 28.9414 268.75 30.2891 268.164 31.8828C267.578 33.4766 267.285 35.3047 267.285 37.3672C267.285 39.6172 267.566 41.5977 268.129 43.3086C268.691 45.0195 269.477 46.4609 270.484 47.6328C271.492 48.7812 272.699 49.6484 274.105 50.2344C275.512 50.8203 277.047 51.1133 278.711 51.1133Z" stroke="white" stroke-width="2" mask="url(#path-1-outside-1_3_2)"/>
    <path d="M322.621 2.70312H342.449C344.887 2.70312 347.207 3.01953 349.41 3.65234C351.613 4.28516 353.664 5.17578 355.562 6.32422C357.461 7.47266 359.184 8.85547 360.73 10.4727C362.277 12.0664 363.59 13.8477 364.668 15.8164C365.77 17.7852 366.613 19.9062 367.199 22.1797C367.785 24.4297 368.078 26.7734 368.078 29.2109C368.078 31.6953 367.785 34.0742 367.199 36.3477C366.613 38.6211 365.77 40.7539 364.668 42.7461C363.59 44.7383 362.277 46.5547 360.73 48.1953C359.184 49.8125 357.461 51.207 355.562 52.3789C353.664 53.5273 351.613 54.418 349.41 55.0508C347.207 55.6836 344.887 56 342.449 56H322.621V49.9531H327.684V8.78516H322.621V2.70312ZM334.574 8.78516V49.9531H342.871C345.332 49.9531 347.641 49.4141 349.797 48.3359C351.977 47.2578 353.875 45.793 355.492 43.9414C357.109 42.0664 358.387 39.875 359.324 37.3672C360.262 34.8359 360.73 32.1172 360.73 29.2109C360.73 26.3516 360.262 23.6797 359.324 21.1953C358.387 18.7109 357.109 16.5547 355.492 14.7266C353.875 12.875 351.977 11.4219 349.797 10.3672C347.641 9.3125 345.332 8.78516 342.871 8.78516H334.574Z" stroke="white" stroke-width="2" mask="url(#path-1-outside-1_3_2)"/>
    <path d="M380.312 38.6328C380.312 39.6641 380.383 40.6133 380.523 41.4805C380.688 42.3242 380.91 43.1328 381.191 43.9062C382.059 46.25 383.441 48.0195 385.34 49.2148C387.262 50.3867 389.43 50.9727 391.844 50.9727C393.742 50.9727 395.582 50.7148 397.363 50.1992C399.168 49.6602 401.055 48.8281 403.023 47.7031L405.66 52.168C403.27 53.8086 400.867 55.0273 398.453 55.8242C396.039 56.6211 393.531 57.0195 390.93 57.0195C388.469 57.0195 386.184 56.6094 384.074 55.7891C381.988 54.9688 380.184 53.75 378.66 52.1328C377.16 50.5156 375.977 48.5 375.109 46.0859C374.266 43.6719 373.844 40.8594 373.844 37.6484C373.844 35.0469 374.207 32.5977 374.934 30.3008C375.66 27.9805 376.738 25.9648 378.168 24.2539C379.621 22.5195 381.414 21.1484 383.547 20.1406C385.68 19.1328 388.164 18.6289 391 18.6289C393.742 18.6289 396.027 19.0508 397.855 19.8945C399.707 20.7148 401.207 21.8164 402.355 23.1992C403.527 24.5586 404.406 26.1172 404.992 27.875C405.602 29.6328 406.023 31.4258 406.258 33.2539C406.375 34.1445 406.445 35.0469 406.469 35.9609C406.516 36.875 406.539 37.7656 406.539 38.6328H380.312ZM390.543 24.1133C389.02 24.1133 387.684 24.3359 386.535 24.7812C385.41 25.2031 384.449 25.8242 383.652 26.6445C382.855 27.4414 382.211 28.4258 381.719 29.5977C381.25 30.7695 380.898 32.082 380.664 33.5352H399.543C399.449 32.1758 399.227 30.9219 398.875 29.7734C398.547 28.625 398.031 27.6289 397.328 26.7852C396.625 25.9414 395.723 25.2852 394.621 24.8164C393.52 24.3477 392.16 24.1133 390.543 24.1133Z" stroke="white" stroke-width="2" mask="url(#path-1-outside-1_3_2)"/>
    <path d="M412.656 19.5781H425.242V25.625H421.832L430.832 50.7266L439.621 25.625H437.406V19.5781H448.938V25.625H445.809L433.891 56.5625H427.422L415.539 25.625H412.656V19.5781Z" stroke="white" stroke-width="2" mask="url(#path-1-outside-1_3_2)"/>
    <path d="M460.328 38.6328C460.328 39.6641 460.398 40.6133 460.539 41.4805C460.703 42.3242 460.926 43.1328 461.207 43.9062C462.074 46.25 463.457 48.0195 465.355 49.2148C467.277 50.3867 469.445 50.9727 471.859 50.9727C473.758 50.9727 475.598 50.7148 477.379 50.1992C479.184 49.6602 481.07 48.8281 483.039 47.7031L485.676 52.168C483.285 53.8086 480.883 55.0273 478.469 55.8242C476.055 56.6211 473.547 57.0195 470.945 57.0195C468.484 57.0195 466.199 56.6094 464.09 55.7891C462.004 54.9688 460.199 53.75 458.676 52.1328C457.176 50.5156 455.992 48.5 455.125 46.0859C454.281 43.6719 453.859 40.8594 453.859 37.6484C453.859 35.0469 454.223 32.5977 454.949 30.3008C455.676 27.9805 456.754 25.9648 458.184 24.2539C459.637 22.5195 461.43 21.1484 463.562 20.1406C465.695 19.1328 468.18 18.6289 471.016 18.6289C473.758 18.6289 476.043 19.0508 477.871 19.8945C479.723 20.7148 481.223 21.8164 482.371 23.1992C483.543 24.5586 484.422 26.1172 485.008 27.875C485.617 29.6328 486.039 31.4258 486.273 33.2539C486.391 34.1445 486.461 35.0469 486.484 35.9609C486.531 36.875 486.555 37.7656 486.555 38.6328H460.328ZM470.559 24.1133C469.035 24.1133 467.699 24.3359 466.551 24.7812C465.426 25.2031 464.465 25.8242 463.668 26.6445C462.871 27.4414 462.227 28.4258 461.734 29.5977C461.266 30.7695 460.914 32.082 460.68 33.5352H479.559C479.465 32.1758 479.242 30.9219 478.891 29.7734C478.562 28.625 478.047 27.6289 477.344 26.7852C476.641 25.9414 475.738 25.2852 474.637 24.8164C473.535 24.3477 472.176 24.1133 470.559 24.1133Z" stroke="white" stroke-width="2" mask="url(#path-1-outside-1_3_2)"/>
    <path d="M495.203 1.29688H507.016V49.9531H512.5V56H495.203V49.9531H500.477V7.34375H495.203V1.29688Z" stroke="white" stroke-width="2" mask="url(#path-1-outside-1_3_2)"/>
    <path d="M518.406 37.7891C518.43 34.9062 518.887 32.2812 519.777 29.9141C520.691 27.5469 521.957 25.5195 523.574 23.832C525.191 22.1211 527.113 20.8086 529.34 19.8945C531.566 18.9805 534.016 18.5234 536.688 18.5234C539.383 18.5234 541.844 18.9805 544.07 19.8945C546.32 20.8086 548.242 22.1094 549.836 23.7969C551.43 25.4609 552.672 27.4766 553.562 29.8438C554.453 32.2109 554.898 34.8359 554.898 37.7188C554.898 40.5547 554.453 43.168 553.562 45.5586C552.672 47.9258 551.43 49.9648 549.836 51.6758C548.242 53.3867 546.32 54.7227 544.07 55.6836C541.844 56.6211 539.383 57.0898 536.688 57.0898C533.945 57.0898 531.461 56.6211 529.234 55.6836C527.008 54.7461 525.098 53.4336 523.504 51.7461C521.91 50.0352 520.668 47.9961 519.777 45.6289C518.887 43.2617 518.43 40.6484 518.406 37.7891ZM525.332 37.7891C525.332 39.875 525.625 41.7617 526.211 43.4492C526.82 45.1367 527.641 46.5781 528.672 47.7734C529.727 48.9453 530.934 49.8594 532.293 50.5156C533.676 51.1484 535.141 51.4648 536.688 51.4648C538.305 51.4648 539.805 51.1484 541.188 50.5156C542.594 49.8828 543.812 48.9805 544.844 47.8086C545.875 46.6133 546.684 45.1719 547.27 43.4844C547.855 41.7969 548.148 39.8984 548.148 37.7891C548.148 35.5859 547.855 33.6289 547.27 31.918C546.684 30.207 545.875 28.7773 544.844 27.6289C543.836 26.4805 542.629 25.6133 541.223 25.0273C539.816 24.4414 538.305 24.1484 536.688 24.1484C535.141 24.1484 533.676 24.4414 532.293 25.0273C530.934 25.6133 529.727 26.4805 528.672 27.6289C527.641 28.7773 526.82 30.207 526.211 31.918C525.625 33.6289 525.332 35.5859 525.332 37.7891Z" stroke="white" stroke-width="2" mask="url(#path-1-outside-1_3_2)"/>
    <path d="M560.559 19.5781H572.16V22.6016C573.707 21.4062 575.395 20.457 577.223 19.7539C579.051 19.0508 580.938 18.6992 582.883 18.6992C585.273 18.6992 587.465 19.1445 589.457 20.0352C591.449 20.9258 593.16 22.1797 594.59 23.7969C596.043 25.4141 597.168 27.3594 597.965 29.6328C598.762 31.8828 599.16 34.3789 599.16 37.1211C599.16 40.0508 598.715 42.7227 597.824 45.1367C596.934 47.5508 595.691 49.625 594.098 51.3594C592.527 53.0703 590.652 54.4062 588.473 55.3672C586.293 56.3281 583.902 56.8086 581.301 56.8086C579.449 56.8086 577.797 56.6094 576.344 56.2109C574.914 55.8359 573.543 55.3438 572.23 54.7344V66.5117H577.926V72.5586H560.629V66.5117H565.621V25.625H560.559V19.5781ZM581.16 24.4648C579.473 24.4648 577.844 24.8047 576.273 25.4844C574.727 26.1641 573.379 27.1016 572.23 28.2969V48.0195C573.004 48.8164 574.105 49.5312 575.535 50.1641C576.988 50.7969 578.793 51.1133 580.949 51.1133C582.449 51.1133 583.891 50.8203 585.273 50.2344C586.656 49.6484 587.875 48.7812 588.93 47.6328C589.984 46.4609 590.828 45.0195 591.461 43.3086C592.094 41.5977 592.41 39.6172 592.41 37.3672C592.41 35.3047 592.105 33.4766 591.496 31.8828C590.91 30.2891 590.102 28.9414 589.07 27.8398C588.062 26.7383 586.879 25.9062 585.52 25.3438C584.16 24.7578 582.707 24.4648 581.16 24.4648Z" stroke="white" stroke-width="2" mask="url(#path-1-outside-1_3_2)"/>
    <path d="M612.133 38.6328C612.133 39.6641 612.203 40.6133 612.344 41.4805C612.508 42.3242 612.73 43.1328 613.012 43.9062C613.879 46.25 615.262 48.0195 617.16 49.2148C619.082 50.3867 621.25 50.9727 623.664 50.9727C625.562 50.9727 627.402 50.7148 629.184 50.1992C630.988 49.6602 632.875 48.8281 634.844 47.7031L637.48 52.168C635.09 53.8086 632.688 55.0273 630.273 55.8242C627.859 56.6211 625.352 57.0195 622.75 57.0195C620.289 57.0195 618.004 56.6094 615.895 55.7891C613.809 54.9688 612.004 53.75 610.48 52.1328C608.98 50.5156 607.797 48.5 606.93 46.0859C606.086 43.6719 605.664 40.8594 605.664 37.6484C605.664 35.0469 606.027 32.5977 606.754 30.3008C607.48 27.9805 608.559 25.9648 609.988 24.2539C611.441 22.5195 613.234 21.1484 615.367 20.1406C617.5 19.1328 619.984 18.6289 622.82 18.6289C625.562 18.6289 627.848 19.0508 629.676 19.8945C631.527 20.7148 633.027 21.8164 634.176 23.1992C635.348 24.5586 636.227 26.1172 636.812 27.875C637.422 29.6328 637.844 31.4258 638.078 33.2539C638.195 34.1445 638.266 35.0469 638.289 35.9609C638.336 36.875 638.359 37.7656 638.359 38.6328H612.133ZM622.363 24.1133C620.84 24.1133 619.504 24.3359 618.355 24.7812C617.23 25.2031 616.27 25.8242 615.473 26.6445C614.676 27.4414 614.031 28.4258 613.539 29.5977C613.07 30.7695 612.719 32.082 612.484 33.5352H631.363C631.27 32.1758 631.047 30.9219 630.695 29.7734C630.367 28.625 629.852 27.6289 629.148 26.7852C628.445 25.9414 627.543 25.2852 626.441 24.8164C625.34 24.3477 623.98 24.1133 622.363 24.1133Z" stroke="white" stroke-width="2" mask="url(#path-1-outside-1_3_2)"/>
    <path d="M673.48 27.2773H666.801V25.0273C666.027 25.0273 665.23 25.1797 664.41 25.4844C663.613 25.7656 662.863 26.2109 662.16 26.8203C661.457 27.4062 660.836 28.168 660.297 29.1055C659.781 30.0195 659.406 31.1094 659.172 32.375V49.9531H665.359V56H647.289V49.9531H652.316L652.352 25.625H647.289V19.5781H658.926V24.6055C659.348 23.8555 659.816 23.1641 660.332 22.5312C660.871 21.875 661.457 21.3125 662.09 20.8438C662.746 20.3516 663.461 19.9766 664.234 19.7188C665.031 19.4375 665.887 19.2969 666.801 19.2969C668.02 19.2969 669.168 19.2969 670.246 19.2969C671.324 19.2969 672.402 19.3203 673.48 19.3672V27.2773Z" stroke="white" stroke-width="2" mask="url(#path-1-outside-1_3_2)"/>
</svg>
